<svg version="1.1" xmlns="http://www.w3.org/2000/svg" xmlns:xlink="http://www.w3.org/1999/xlink"
    width="512" height="512" viewBox="0,0,256,256">
    <g transform="translate(32,32) scale(0.75,0.75)">
        <g fill="#332e00" fill-rule="nonzero" stroke="none" stroke-width="1"
            stroke-linecap="butt"
            stroke-linejoin="miter" stroke-miterlimit="10" stroke-dasharray="" stroke-dashoffset="0"
            font-family="none" font-weight="none" font-size="none" text-anchor="none"
            style="mix-blend-mode: normal">
            <path
                d="M128,298.66667c-94.2566,0 -170.66667,-76.41007 -170.66667,-170.66667v0c0,-94.2566 76.41007,-170.66667 170.66667,-170.66667v0c94.2566,0 170.66667,76.41007 170.66667,170.66667v0c0,94.2566 -76.41007,170.66667 -170.66667,170.66667z"
                id="shape" xd-hidden=""></path>
        </g>
        <g fill="#ffd700" fill-rule="nonzero" stroke="none" stroke-width="1"
            stroke-linecap="butt"
            stroke-linejoin="miter" stroke-miterlimit="10" stroke-dasharray="" stroke-dashoffset="0"
            font-family="none" font-weight="none" font-size="none" text-anchor="none"
            style="mix-blend-mode: normal">
            <g transform="scale(10.66667,10.66667)">
                <path
                    d="M12,2c-1.16667,0 -3.64978,0.25439 -6.01758,0.91211c-1.1839,0.32886 -2.32435,0.75107 -3.25195,1.36328c-0.9276,0.61222 -1.73047,1.53017 -1.73047,2.72461c0,0.97222 0.35848,1.80624 0.85156,2.4082c0.49308,0.60197 1.08662,1.00087 1.61328,1.33398c0.52666,0.33311 0.99432,0.61075 1.25391,0.83594c0.25958,0.22519 0.28125,0.28052 0.28125,0.42188c0,0.14136 -0.0755,0.33764 -0.37109,0.66797c-0.2956,0.33033 -0.7724,0.72787 -1.29102,1.18555c-1.03723,0.91536 -2.33789,2.20204 -2.33789,4.14648c0,2.66667 2.55273,3.89453 2.55273,3.89453l0.89453,0.44727l0.89453,-1.78906l-0.89453,-0.44727c0,0 -1.44727,-0.77214 -1.44727,-2.10547c0,-1.05556 0.69934,-1.79879 1.66211,-2.64844c0.48138,-0.42482 1.00458,-0.84376 1.45898,-1.35156c0.4544,-0.5078 0.87891,-1.17136 0.87891,-2c0,-0.82864 -0.47833,-1.50816 -0.96875,-1.93359c-0.49042,-0.42544 -1.02275,-0.71428 -1.49609,-1.01367c-0.47334,-0.29939 -0.8798,-0.59845 -1.13672,-0.91211c-0.25692,-0.31366 -0.39844,-0.61285 -0.39844,-1.14062c0,-0.30556 0.19713,-0.63761 0.83203,-1.05664c0.6349,-0.41903 1.61944,-0.80933 2.68555,-1.10547c2.13221,-0.59228 4.64909,-0.83789 5.48242,-0.83789h1v-2zM19.75,4.01953l-12.93945,12.94141l-0.81055,5.03906l5.05078,-0.78906l12.94922,-12.95117c-0.63,-1.94 -2.05,-3.54023 -4.25,-4.24023zM20.19922,6.39063v0.00977c0.64,0.39 1.09016,0.89992 1.41016,1.41992l-1.18359,1.18359l-1.41797,-1.42187zM17.59375,8.99609l1.41797,1.42188l-8.91211,8.91211l-1.68945,0.25977l0.26953,-1.67969z"></path>
            </g>
        </g>
    </g>
</svg>