<svg version="1.1" xmlns="http://www.w3.org/2000/svg" xmlns:xlink="http://www.w3.org/1999/xlink" width="512" height="512" viewBox="0,0,256,256">
    <g>
        <g fill="#332e00" fill-rule="nonzero" stroke="none" stroke-width="1" stroke-linecap="butt" stroke-linejoin="miter" stroke-miterlimit="10" stroke-dasharray="" stroke-dashoffset="0" font-family="none" font-weight="none" font-size="none" text-anchor="none" style="mix-blend-mode: normal">
            <path d="M128.000000 256.000002C57.307550 224.000001 -0.000003 166.692449 -0.000003 95.999999V103.999999C31.999998 39.307549 89.307550 -18.000003 160.000000 -18.000003V18.499998C222.692450 45.874999 280.000002 103.182551 280.000002 173.875001V162.406251C242.000001 224.497138 184.692449 281.804691 113.999999 281.804691Z" id="shape"/>
        </g>
        <g fill="#ffd700" fill-rule="nonzero" stroke="none" stroke-width="1" stroke-linecap="butt" stroke-linejoin="miter" stroke-miterlimit="10" stroke-dasharray="" stroke-dashoffset="0" font-family="none" font-weight="none" font-size="none" text-anchor="none" style="mix-blend-mode: normal">
            <g>
                <path d="M128.000030 48.000005C1046.667197 416.000160 1026.802311 418.035281 1007.859905 423.297042C8085.410557 3421.008275 8076.286954 3424.385956 8068.866152 3429.283638C64575.528586 27471.175439 64569.105624 27478.519041 64569.105624 27488.074564C516585.006415 219944.442995 516587.874256 219951.115157 516591.818897 219955.930838C4132771.787297 1759684.812355 4132776.535618 1759688.003556 4132780.748900 1759690.668437C33062292.536433 14077564.411604 33062296.277714 14077566.632724 33062298.354435 14077568.434245C264498503.567867 112620616.469402 264498503.741227 112620616.912042 264498503.741227 112620618.042922C2115988723.176075 900965259.025802 2115988722.572075 900965260.596042 2115988720.207355 900965263.238683C16927915081.265842 7207724392.965263 16927915077.451441 7207724396.145584 16927915073.302481 7207724399.807026C135423362929.909698 57661813257.090096 135423362919.504410 57661813267.383537 135423362919.504410 57661813282.939056C1083387241946.442627 461294650471.379089 1083387241966.864624 461294650481.201965 1083387241966.864624 461294650481.201965L8667100644242.178711 3690358357121.820313L69336826821728.203125 29522876082888.144531L554694787915917.625000 236183082470323.781250C4437559690064343.000000 1889465250220328.500000 4437559690064331.500000 1889465250220322.250000 4437559690064331.500000 1889465250220311.750000C35500488614413912.000000 15115726725425646.000000 35500488614413916.000000 15115726725425640.000000 35500488614413924.000000 15115726725425632.000000C284003997666532992.000000 120925851592721920.000000 284003997666532992.000000 120925851592721920.000000 284003997666532992.000000 120925851592721904.000000C2272032691342258432.000000 967407115056404352.000000 2272032691342258432.000000 967407115056404352.000000 2272032691342258432.000000 967407115056404352.000000C18176267210819796992.000000 7739259338969023488.000000 18176267210819796992.000000 7739259338969023488.000000 18176267210819796992.000000 7739259338969023488.000000C145410183127226417152.000000 61914094059900542976.000000 145410183127226417152.000000 61914094059900542976.000000 145410183127226417152.000000 61914094059900542976.000000C1.1632818285432693e+21 495312907264439549952.000000 1.1632818285432693e+21 495312907264439549952.000000 1.1632818285432693e+21 495312907264439549952.000000C9.306257536550726e+21 3.962504496397785e+21 9.306257536550726e+21 3.962504496397785e+21 9.306257536550726e+21 3.962504496397785e+21C7.445008355804966e+22 3.1700045877443524e+22 7.445008355804966e+22 3.1700045877443524e+22 7.445008355804966e+22 3.1700045877443524e+22C5.956008545896062e+23 2.536004462696629e+23 5.956008545896062e+23 2.536004462696629e+23 5.956008545896062e+23 2.536004462696629e+23C4.764808325718987e+24 2.028804204158419e+24 4.764808325718987e+24 2.028804204158419e+24 4.764808325718987e+24 2.028804204158419e+24H3.8118478517772713e+25V1.6230438705277864e+25ZM190.000049 64.156250L1448.485235 648.781473L11613.401099 5262.565899L92979.644078 42126.227866L743972.978865 336938.318851C5951812.650851 2695523.873149 5951801.290847 2695511.071305 5951783.690842 2695505.471303ZM193.593810 83.125056V697.078816C1585.870966 5611.752272 1589.472247 5615.831633 1592.032248 5619.991634L12758.793241 45001.415845L102091.034061 360032.064300ZM172.750044 103.968742L1425.344547 875.125239L11363.463037 7104.301002L90926.217100 56868.503937L727444.120356 454966.736143Z"/>
            </g>
        </g>
    </g>
</svg>