<svg version="1.1" xmlns="http://www.w3.org/2000/svg" xmlns:xlink="http://www.w3.org/1999/xlink" width="512" height="512" viewBox="0,0,256,256">
    <g>
        <g fill="#332e00" fill-rule="nonzero" stroke="none" stroke-width="1" stroke-linecap="butt" stroke-linejoin="miter" stroke-miterlimit="10" stroke-dasharray="" stroke-dashoffset="0" font-family="none" font-weight="none" font-size="none" text-anchor="none" style="mix-blend-mode: normal">
            <path d="M128 256C57.3075 256 0 198.6925 0 128H0C0 57.3075 57.3075 0 128 0H128C198.6925 0 256 57.3075 256 128H256C256 198.6925 198.6925 256 128 256Z" id="shape" xd-hidden=""/>
        </g>
        <g fill="#ffd700" fill-rule="nonzero" stroke="none" stroke-width="1" stroke-linecap="butt" stroke-linejoin="miter" stroke-miterlimit="10" stroke-dasharray="" stroke-dashoffset="0" font-family="none" font-weight="none" font-size="none" text-anchor="none" style="mix-blend-mode: normal">
            <g>
                <path d="M128 48C118.6667 48 98.8018 50.0351 79.8594 55.2969C70.3881 57.9278 61.2646 61.3054 53.8438 66.2032C46.423 71.1009 40 78.4445 40 88C40 95.7778 42.8679 102.45 46.8125 107.2657C50.7571 112.0814 55.5055 115.2726 59.7187 117.9375C63.932 120.6024 67.6733 122.8235 69.75 124.625C71.8267 126.4265 72.0001 126.8691 72.0001 128C72.0001 129.1309 71.396 130.7011 69.0313 133.3438C66.6665 135.9864 62.8521 139.1668 58.7032 142.8282C50.4053 150.1511 40 160.4446 40 176.0001C40 197.3334 60.4219 207.1563 60.4219 207.1563L67.5781 210.7345L74.7343 196.422L67.5781 192.8438C67.5781 192.8438 55.9999 186.6667 55.9999 176.0001C55.9999 167.5555 61.5946 161.6098 69.2968 154.8125C73.1479 151.414 77.3335 148.0624 80.9686 144.0001C84.6039 139.9376 88 134.6292 88 128C88 121.3709 84.1733 115.9347 80.2499 112.5313C76.3266 109.1278 72.0679 106.8171 68.2812 104.422C64.4945 102.0268 61.2428 99.6343 59.1874 97.1251C57.1321 94.6158 55.9999 92.2222 55.9999 88.0001C55.9999 85.5556 57.577 82.8992 62.6562 79.547C67.7354 76.1947 75.6117 73.0723 84.1406 70.7032C101.1982 65.965 121.3333 64.0001 127.9999 64.0001H135.9999V48.0001ZM190 64.1563L86.4844 167.6875L80 208L120.4063 201.6876L224.0001 98.0782C218.9601 82.5582 207.6001 69.7564 190 64.1563ZM193.5938 83.125V83.2032C198.7138 86.3233 202.3151 90.4026 204.8751 94.5626L195.4064 104.0313L184.0626 92.6563ZM172.75 103.9687L184.0938 115.3438L112.7969 186.6407L99.2813 188.7189L101.4376 175.2814Z"/>
            </g>
        </g>
    </g>
</svg>