<svg version="1.1" xmlns="http://www.w3.org/2000/svg" xmlns:xlink="http://www.w3.org/1999/xlink" width="512" height="512" viewBox="0,0,256,256">
    <g>
        <g fill="#332e00" fill-rule="nonzero" stroke="none" stroke-width="1" stroke-linecap="butt" stroke-linejoin="miter" stroke-miterlimit="10" stroke-dasharray="" stroke-dashoffset="0" font-family="none" font-weight="none" font-size="none" text-anchor="none" style="mix-blend-mode: normal">
            <path d="M128 256C57.3075 256 0 198.6925 0 128H0C0 57.3075 57.3075 0 128 0H128C198.6925 0 256 57.3075 256 128H256C256 198.6925 198.6925 256 128 256Z" id="shape"/>
        </g>
        <g fill="#ffd700" fill-rule="nonzero" stroke="none" stroke-width="1" stroke-linecap="butt" stroke-linejoin="miter" stroke-miterlimit="10" stroke-dasharray="" stroke-dashoffset="0" font-family="none" font-weight="none" font-size="none" text-anchor="none" style="mix-blend-mode: normal">
            <g>
                <path d="M41 33.5C40.125 33.5 38.2627 33.6908 36.4868 34.1841C35.5989 34.4307 34.7436 34.7474 34.0479 35.2065C33.3522 35.6657 32.75 36.3542 32.75 37.25C32.75 37.9792 33.0189 38.6047 33.3887 39.0562C33.7585 39.5076 34.2036 39.8068 34.5986 40.0566C34.9936 40.3065 35.3444 40.5147 35.5391 40.6836C35.7337 40.8525 35.75 40.894 35.75 41C35.75 41.106 35.6934 41.2532 35.4717 41.501C35.25 41.7487 34.8924 42.0469 34.5034 42.3901C33.7255 43.0767 32.75 44.0417 32.75 45.5C32.75 47.5 34.6645 48.4209 34.6645 48.4209L35.3354 48.7564L36.0063 47.4146L35.3354 47.0791C35.3354 47.0791 34.25 46.5 34.25 45.5C34.25 44.7083 34.7745 44.1509 35.4966 43.5137C35.8576 43.1951 36.25 42.8809 36.5908 42.5C36.9316 42.1192 37.25 41.6215 37.25 41C37.25 40.3785 36.8912 39.8689 36.5234 39.5498C36.1556 39.2307 35.7564 39.0141 35.4014 38.7896C35.0464 38.565 34.7415 38.3407 34.5488 38.1055C34.3561 37.8702 34.25 37.6458 34.25 37.25C34.25 37.0208 34.3978 36.7718 34.874 36.4575C35.3502 36.1433 36.0886 35.8505 36.8882 35.6284C38.4873 35.1842 40.375 35 41 35H41.75V33.5ZM46.8125 35.0146L37.1079 44.7207L36.5 48.5L40.2881 47.9082L50 38.1948C49.5275 36.7398 48.4625 35.5397 46.8125 35.0147ZM47.1494 36.793V36.8003C47.6294 37.0928 47.967 37.4752 48.207 37.8652L47.3193 38.7529L46.2559 37.6865ZM45.1953 38.7471L46.2588 39.8135L39.5747 46.4976L38.3076 46.6924L38.5098 45.4326Z"/>
            </g>
        </g>
    </g>
</svg>