<svg version="1.1" xmlns="http://www.w3.org/2000/svg" xmlns:xlink="http://www.w3.org/1999/xlink" width="512" height="512" viewBox="0,0,256,256">
    <g>
        <g fill="#332e00" fill-rule="nonzero" stroke="none" stroke-width="1" stroke-linecap="butt" stroke-linejoin="miter" stroke-miterlimit="10" stroke-dasharray="" stroke-dashoffset="0" font-family="none" font-weight="none" font-size="none" text-anchor="none" style="mix-blend-mode: normal">
            <path d="M128.000000 226.250002c57.307552 128.000003 0.000000 70.692450 0.000000 0.000000v0.000000c-128.000003 57.307553 -70.692450 0.000000 0.000000 0.000000v0.000000c-57.307553 -128.000002 0.000000 -70.692450 0.000000 0.000000v0.000000c128.000002 -57.307552 70.692450 0.000000 0.000000 0.000000z0.000000" id="shape"/>
        </g>
        <g fill="#ffd700" fill-rule="nonzero" stroke="none" stroke-width="1" stroke-linecap="butt" stroke-linejoin="miter" stroke-miterlimit="10" stroke-dasharray="" stroke-dashoffset="0" font-family="none" font-weight="none" font-size="none" text-anchor="none" style="mix-blend-mode: normal">
            <g>
                <path d="M128.000030 33.500010c38.807292 -7.296882 18.942406 -5.261762 0.000000 0.000000c16.544405 -8.275363 7.420802 -4.897682 0.000000 0.000000c6.422962 -16.899125 0.000000 -9.555523 0.000000 0.000000c-6.812482 -11.487844 -3.944641 -4.815682 0.000000 0.000000c0.000000 0.000000 0.000000 0.000000 0.000000 0.000000c0.000000 0.000000 0.000000 0.000000 0.000000 0.000000c0.000000 0.000000 0.000000 0.000000 0.000000 0.000000c0.000000 0.000000 0.000000 0.000000 0.000000 0.000000c0.000000 0.000000 0.000000 0.000000 0.000000 0.000000c0.000000 0.000000 0.000000 0.000000 0.000000 0.000000c0.000000 0.000000 0.000000 0.000000 0.000000 0.000000l0.000000 0.000000l0.000000 0.000000l0.000000 0.000000c0.000000 0.000000 0.000000 0.000000 0.000000 0.000000c0.000000 0.000000 0.000000 0.000000 0.000000 0.000000c0.000000 0.000000 0.000000 0.000000 0.000000 0.000000c0.000000 0.000000 0.000000 0.000000 0.000000 0.000000c0.000000 0.000000 0.000000 0.000000 0.000000 0.000000c0.000000 0.000000 0.000000 0.000000 0.000000 0.000000c0.000000 0.000000 0.000000 0.000000 0.000000 0.000000c0.000000 0.000000 0.000000 0.000000 0.000000 0.000000c0.000000 0.000000 0.000000 0.000000 0.000000 0.000000c0.000000 0.000000 0.000000 0.000000 0.000000 0.000000c0.000000 0.000000 0.000000 0.000000 0.000000 0.000000h0.000000v0.000000z0.000000M190.000049 49.656255l0.000000 0.000000l0.000000 0.000000l0.000000 0.000000l0.000000 0.000000c0.000000 0.000000 0.000000 0.000000 0.000000 0.000000z0.000000M193.593810 68.625061v0.000000c-6.161282 -8.239363 -2.560001 -4.160001 0.000000 0.000000l0.000000 0.000000l0.000000 0.000000z0.000000M172.750044 89.468747l0.000000 0.000000l0.000000 0.000000l0.000000 0.000000l0.000000 0.000000z0.000000"/>
            </g>
        </g>
    </g>
</svg>